<svg id="Capa_1" data-name="Capa 1" xmlns="http://www.w3.org/2000/svg" viewBox="0 0 36.98 36.96"><defs><style>.cls-1{fill:#424b63;}</style></defs><path class="cls-1" d="M35.07,39.25H5.61l-.37-.14a3.06,3.06,0,0,1-2-1.55l-.57-1.28v-21A2,2,0,0,0,2.79,15,3.27,3.27,0,0,1,6,12.41c.63,0,1.26,0,1.88,0A3.4,3.4,0,0,0,9.56,12c.7-.44,1.42-.85,2.14-1.26l4.59-2.66,5.14-3C22.65,4.4,23.86,3.66,25.09,3a3.55,3.55,0,0,1,2.59-.62A3.07,3.07,0,0,1,29.8,3.72c.86,1.39,1.68,2.81,2.5,4.24s1.47,2.61,2.21,3.91a1.23,1.23,0,0,0,.84.65,3,3,0,0,1,2.21,1.73A4.78,4.78,0,0,1,37.94,16c.06,1.53,0,3.06,0,4.59a.5.5,0,0,0,.28.53,2.54,2.54,0,0,1,1.39,2.49c0,1.49,0,3,0,4.48a2.54,2.54,0,0,1-1.34,2.42.57.57,0,0,0-.33.58c0,1.72,0,3.44-.09,5.16a3,3,0,0,1-2,2.68C35.59,39,35.33,39.13,35.07,39.25ZM36.3,20.8c0-1.7,0-3.34,0-5A1.7,1.7,0,0,0,34.49,14H6.09a1.68,1.68,0,0,0-1.78,1.75q0,10,0,20.08a2,2,0,0,0,.15.76,1.62,1.62,0,0,0,1.65,1H29.5c1.67,0,3.35,0,5,0a1.62,1.62,0,0,0,1.76-1.75c0-1.56,0-3.11,0-4.67,0-.12,0-.23,0-.38H31.09A4.6,4.6,0,0,1,28,29.58a4.91,4.91,0,0,1-1.65-4.86,5,5,0,0,1,4.73-3.91c1.6,0,3.21,0,4.81,0Zm-2.21,8.39c.93,0,1.86,0,2.78,0,.74,0,1.11-.17,1.1-1.09,0-1.56,0-3.13,0-4.69,0-.75-.39-1-1-1H31.89a7.16,7.16,0,0,0-1.39.08A3.17,3.17,0,0,0,28,24.72a3.41,3.41,0,0,0,.78,3.43,3.37,3.37,0,0,0,2.55,1C32.26,29.22,33.18,29.19,34.09,29.19ZM12.37,12.25l0,.09c.75,0,1.51,0,2.27,0a3,3,0,0,0,1.76-.44C18,11,19.62,10.06,21.22,9.13l5.13-3,2.22-1.3a1,1,0,0,0-.05-.16,1.63,1.63,0,0,0-2.19-.55c-.72.36-1.39.8-2.08,1.2L21,7.2l-3.33,2L14.43,11Zm6.61,0a1.13,1.13,0,0,0,.2.07h3a.59.59,0,0,0,.26-.07c.52-.29,1-.57,1.55-.87l3.73-2.17L30.3,7.7l-.87-1.52Zm14,.06L31.09,9.09l-5.38,3.14.05.09Z" transform="translate(-2.65 -2.29)"/><path class="cls-1" d="M31.23,24.06A1.75,1.75,0,0,1,33,25.76a1.71,1.71,0,0,1-1.75,1.75,1.69,1.69,0,0,1-1.72-1.67A1.75,1.75,0,0,1,31.23,24.06Z" transform="translate(-2.65 -2.29)"/></svg>