<svg id="Capa_1" data-name="Capa 1" xmlns="http://www.w3.org/2000/svg" viewBox="0 0 33.56 36.23"><defs><style>.cls-1{fill:#424b63;}</style></defs><path class="cls-1" d="M27.61,3.84A4.06,4.06,0,0,1,29.11,5c1.5,1.51,3,3,4.51,4.5a2.39,2.39,0,0,1,.77,1.86c0,.56,0,1.13,0,1.7s-.2.67-.55.67-.54-.24-.54-.68c0-.66,0-1.32,0-2H28.57A1.26,1.26,0,0,1,27.2,9.63V4.9H6.87c-.88,0-1.18.3-1.18,1.19V19.53c0,.13,0,.26,0,.39a.49.49,0,0,1-.5.49.52.52,0,0,1-.56-.48c0-.11,0-.23,0-.35,0-4.44,0-8.89,0-13.33A2.21,2.21,0,0,1,6.17,3.84Zm4.83,6.08L28.32,5.81s0,0,0,0c0,1.27,0,2.55,0,3.82,0,.23.12.27.32.27Z" transform="translate(-4.6 -3.84)"/><path class="cls-1" d="M28.75,32.71l-.63.84a.91.91,0,0,1-1.43.23l-4.76-3.56a.91.91,0,0,1-.2-1.36l.66-.89-.37-.3a.87.87,0,0,1-.17-1.25c.33-.46.66-.92,1-1.36a1.72,1.72,0,0,1,2.37-.31c.38.27.74.55,1.12.83.57-.76,1.13-1.48,1.66-2.24a1.84,1.84,0,0,0,.18-1.65,5,5,0,0,1,3.54-6.27,4.92,4.92,0,0,1,4.84,1.21,1,1,0,0,1,.28.39.48.48,0,0,1-.23.61.58.58,0,0,1-.68-.1,7.8,7.8,0,0,0-1.54-1,4,4,0,0,0-5.18,4.73,3.29,3.29,0,0,1-.63,3.11c-.48.58-.91,1.2-1.38,1.83l1.83,1.36c.49-.66,1-1.29,1.45-1.94a3.07,3.07,0,0,1,2.68-1.36A4,4,0,0,0,37,19.53c-.05-.28-.08-.55.18-.7a.78.78,0,0,1,.58,0c.13,0,.23.26.27.41a5,5,0,0,1-3.4,5.9,6.51,6.51,0,0,1-1.53.24,2,2,0,0,0-1.68.87c-.48.67-1,1.32-1.5,2l1,.74a1.75,1.75,0,0,1,.39,2.65l-.77,1a.94.94,0,0,1-1.55.22Zm-5.94-5.79L29.63,32c.27-.37.54-.71.79-1.06a.69.69,0,0,0-.17-1.12c-.68-.52-1.37-1-2.06-1.54l-3.48-2.6c-.39-.29-.71-.29-1,0S23.13,26.5,22.81,26.92Zm5.07,5.14-4.61-3.45-.61.81,4.62,3.45Z" transform="translate(-4.6 -3.84)"/><path class="cls-1" d="M19.47,40.07H6.7A1.94,1.94,0,0,1,4.62,38c0-5,0-10.07,0-15.11a.85.85,0,0,1,.19-.57.56.56,0,0,1,.5-.12.68.68,0,0,1,.35.39,1.12,1.12,0,0,1,0,.45V37.8c0,.91.29,1.21,1.2,1.21H32.12c.88,0,1.17-.29,1.17-1.16v-10c0-.11,0-.21,0-.32a.54.54,0,0,1,.55-.53.52.52,0,0,1,.53.51,1.48,1.48,0,0,1,0,.21c0,3.45,0,6.89,0,10.34a2,2,0,0,1-1.54,2,2.09,2.09,0,0,1-.56,0Z" transform="translate(-4.6 -3.84)"/><path class="cls-1" d="M19.51,13.31H8.69a.57.57,0,0,1-.6-.56.56.56,0,0,1,.6-.51H30.4a.48.48,0,0,1,.48.47.51.51,0,0,1-.41.58,1.59,1.59,0,0,1-.38,0Z" transform="translate(-4.6 -3.84)"/><path class="cls-1" d="M18,16.28H8.73c-.39,0-.65-.24-.64-.56s.25-.51.63-.53H27a2,2,0,0,1,.42,0,.5.5,0,0,1,.46.54.53.53,0,0,1-.48.52,2.08,2.08,0,0,1-.35,0Z" transform="translate(-4.6 -3.84)"/><path class="cls-1" d="M17.35,21.12H25.7c.1,0,.21,0,.32,0a.54.54,0,0,1,.53.55.52.52,0,0,1-.51.53,1.62,1.62,0,0,1-.31,0H8.93q-.82,0-.84-.54c0-.37.28-.56.85-.56Z" transform="translate(-4.6 -3.84)"/><path class="cls-1" d="M17.31,18.15h8.41c.58,0,.82.17.83.54s-.25.56-.81.56H8.87c-.51,0-.79-.2-.78-.56s.28-.54.77-.54h8.45Z" transform="translate(-4.6 -3.84)"/><path class="cls-1" d="M17.17,30.29v2.28l.42,0h5.48a1.93,1.93,0,0,1,.42,0,.47.47,0,0,1,.38.49.47.47,0,0,1-.38.52,1.2,1.2,0,0,1-.38,0H17.2c-.78,0-1.12-.33-1.12-1.11V30.2a.92.92,0,0,1,1-1c1,0,1.89,0,2.83,0,.38,0,.63.22.64.53a.57.57,0,0,1-.64.56H17.17Z" transform="translate(-4.6 -3.84)"/><path class="cls-1" d="M14.48,25.17H8.69a.56.56,0,0,1-.6-.53.56.56,0,0,1,.6-.55H20.22c.4,0,.65.22.66.54s-.25.55-.67.55Z" transform="translate(-4.6 -3.84)"/></svg>