<svg id="Capa_1" data-name="Capa 1" xmlns="http://www.w3.org/2000/svg" viewBox="0 0 38.52 38.51"><defs><style>.cls-1{fill:#424b63;}</style></defs><path class="cls-1" d="M1,25.76V23.35c.05-.39.1-.79.17-1.18a15.32,15.32,0,0,1,4.81-9,15,15,0,0,1,9.13-4.08.6.6,0,0,0,.53-.38A12.4,12.4,0,0,1,24,2c.62-.15,1.25-.24,1.87-.36H28c.59.1,1.18.18,1.77.31a12.59,12.59,0,0,1,9.55,14.4,12.38,12.38,0,0,1-6.9,9.14.59.59,0,0,0-.36.51,22.92,22.92,0,0,1-.39,2.32A15.54,15.54,0,0,1,17.51,40.1,15,15,0,0,1,9.3,38.31a15.37,15.37,0,0,1-8-10.71C1.19,27,1.12,26.37,1,25.76Zm13.5-13.55c-.12,0-.23,0-.34,0a12.54,12.54,0,1,0,14.94,12.6,12.29,12.29,0,0,0-3.91-9.38,12.73,12.73,0,0,0-3.4-2.32,1.51,1.51,0,1,1,1.24-2.75,15.45,15.45,0,0,1,8.56,10.13c.16.56.26,1.13.4,1.73l.21-.12a9.28,9.28,0,0,0,4.13-9.43,9.52,9.52,0,0,0-18.92,1.15A9.29,9.29,0,0,0,22,22.26a9,9,0,0,0,2.87,1.18,1.48,1.48,0,0,1,1.22,1.5,1.43,1.43,0,0,1-1.17,1.45,2.91,2.91,0,0,1-1.21-.09,12.89,12.89,0,0,1-5.82-3.52A12.33,12.33,0,0,1,14.52,12.21Z" transform="translate(-1.02 -1.63)"/></svg>