<svg id="Capa_1" data-name="Capa 1" xmlns="http://www.w3.org/2000/svg" viewBox="0 0 41.33 40.06"><defs><style>.cls-1{fill:#424b63;}</style></defs><path class="cls-1" d="M.91,21.27A.91.91,0,0,0,1,21.1a2.3,2.3,0,0,1,2.2-1.59c.4,0,.81,0,1.21,0a.35.35,0,0,0,.41-.27A15,15,0,0,1,7,15.34a.9.9,0,0,0,.15-.51c0-1.58,0-3.15,0-4.72A1.47,1.47,0,0,1,9.45,8.77l3.35,1.94.14,0v-.43A8.63,8.63,0,0,1,30.13,9.1a12.62,12.62,0,0,1,0,2c0,.27.14.32.29.41a14.59,14.59,0,0,1,6,6.45,14.79,14.79,0,0,1,1.41,5.25c0,.08,0,.16,0,.27.54,0,1.08,0,1.61,0a1.22,1.22,0,0,0,0-2.43A1.66,1.66,0,0,1,39,21a.8.8,0,0,1-.41-.95.86.86,0,0,1,.91-.58A2.9,2.9,0,0,1,42.23,22,2.85,2.85,0,0,1,40,25.06a3.83,3.83,0,0,1-.67.08H37.93c-.16.91-.26,1.81-.47,2.67A14.48,14.48,0,0,1,32,36.09a.62.62,0,0,0-.29.56c0,1,0,2,0,3a1.75,1.75,0,0,1-1.92,1.93H27.07a1.7,1.7,0,0,1-1.63-1c-.26-.47-.48-1-.75-1.42a.49.49,0,0,0-.36-.21H17.47a.49.49,0,0,0-.35.2c-.27.45-.49.93-.73,1.39a1.76,1.76,0,0,1-1.69,1H12a1.71,1.71,0,0,1-1.87-1.84c0-1,0-2.05,0-3.07a.7.7,0,0,0-.31-.64,14.38,14.38,0,0,1-4.91-6.55.46.46,0,0,0-.53-.36,10.26,10.26,0,0,1-1.24,0A2.25,2.25,0,0,1,1,27.53a1,1,0,0,0-.09-.13ZM30.05,40c0-.19,0-.33,0-.47,0-1.11,0-2.21,0-3.31A1.3,1.3,0,0,1,30.68,35a12.74,12.74,0,0,0,5.51-11.76,12.67,12.67,0,0,0-4.57-8.9c-.57-.49-1.21-.91-1.83-1.36l-.7,1.54c.5.45,1,.87,1.46,1.31a.77.77,0,0,1,.13,1,.74.74,0,0,1-.85.39,1.36,1.36,0,0,1-.57-.35,11,11,0,0,0-14.49-.73c-.36.28-.68.61-1,.9a.8.8,0,0,1-1.32-.44,1.18,1.18,0,0,1,.3-.81,16.63,16.63,0,0,1,1.34-1.21l-.83-2a6.76,6.76,0,0,1-1.09-.41c-1-.56-2-1.15-3-1.73l-.38-.19v.49c0,1.51,0,3,0,4.52a1.51,1.51,0,0,1-.28.8A13.51,13.51,0,0,0,6.15,20.4c-.18.59-.43.76-1.07.77H3.19c-.35,0-.61.17-.63.5,0,.61,0,1.22,0,1.86.37,0,.71,0,1,0a.81.81,0,1,1,0,1.61H2.53c0,.59,0,1.11,0,1.63s.23.73.75.73,1.24,0,1.86,0a.88.88,0,0,1,1,.7,13,13,0,0,0,5.12,6.93,1,1,0,0,1,.47.92c0,1.16,0,2.31,0,3.47V40c1,0,2,0,3,0,.1,0,.23-.16.29-.28l1-1.93a.83.83,0,0,1,1-.48,2.71,2.71,0,0,0,.4,0c2,0,3.95.06,5.93.07a12.26,12.26,0,0,0,1.48-.1.88.88,0,0,1,1,.54c.33.62.64,1.24,1,1.86.06.11.19.27.29.28C28.06,40,29,40,30.05,40ZM27.69,13.6a7,7,0,0,0-1.52-8.68,7.05,7.05,0,0,0-9.19,0,6.94,6.94,0,0,0-1.51,8.68l3.61-1.3c0-.3-.14-.64-.17-1a.76.76,0,0,1,.7-.86.8.8,0,0,1,.91.76,1,1,0,0,0,1,.92,1,1,0,0,0,1.08-.84,1,1,0,0,0-.94-.92h-.32a2.68,2.68,0,0,1-2.44-2.06,2.47,2.47,0,0,1,1.53-2.73c.19-.08.3-.15.33-.38a.8.8,0,0,1,1.57,0c0,.24.14.31.33.39a2.43,2.43,0,0,1,1.56,2.24.79.79,0,0,1-.74.85.83.83,0,0,1-.88-.76,1.06,1.06,0,0,0-1.53-.83.83.83,0,0,0-.57.8.81.81,0,0,0,.61.77,2.19,2.19,0,0,0,.67.11,2.53,2.53,0,0,1,2.37,2,7.09,7.09,0,0,1-.05,1.6Z" transform="translate(-0.91 -1.56)"/><path class="cls-1" d="M11.72,19.51a.84.84,0,0,1-.85.79A.81.81,0,1,1,11,18.69.83.83,0,0,1,11.72,19.51Z" transform="translate(-0.91 -1.56)"/></svg>