<svg id="Capa_1" data-name="Capa 1" xmlns="http://www.w3.org/2000/svg" xmlns:xlink="http://www.w3.org/1999/xlink" viewBox="0 0 140.43 140.42"><defs><style>.cls-1{fill:url(#Degradado_sin_nombre_16);}.cls-2{fill:url(#Degradado_sin_nombre_16-2);}.cls-3{fill:url(#Degradado_sin_nombre_16-3);}.cls-4{fill:url(#Degradado_sin_nombre_16-4);}</style><linearGradient id="Degradado_sin_nombre_16" x1="39.44" y1="-14.98" x2="140.48" y2="208.33" gradientUnits="userSpaceOnUse"><stop offset="0.17" stop-color="#458ecc"/><stop offset="0.28" stop-color="#4a8bca"/><stop offset="0.41" stop-color="#5882c3"/><stop offset="0.56" stop-color="#7074b9"/><stop offset="0.71" stop-color="#9160aa"/><stop offset="0.86" stop-color="#bb4797"/><stop offset="1" stop-color="#e82c83"/></linearGradient><linearGradient id="Degradado_sin_nombre_16-2" x1="31.92" y1="-11.57" x2="132.96" y2="211.74" xlink:href="#Degradado_sin_nombre_16"/><linearGradient id="Degradado_sin_nombre_16-3" x1="90.36" y1="-38.01" x2="191.4" y2="185.3" xlink:href="#Degradado_sin_nombre_16"/><linearGradient id="Degradado_sin_nombre_16-4" x1="45.9" y1="-17.9" x2="146.94" y2="205.41" xlink:href="#Degradado_sin_nombre_16"/></defs><path class="cls-1" d="M111.13,18c.85-1.74,1.72-3.48,2.59-5.23.17-.35.33-.7.51-1A4.25,4.25,0,0,1,120.38,10q5.53,3.4,11,6.89a4.25,4.25,0,0,1,1.07,6.3c-1.4,1.85-2.84,3.67-4.29,5.56a6.35,6.35,0,0,1,2,3.27,5.5,5.5,0,0,1-.67,4.14c-1.05,1.73-2.1,3.45-3.2,5.14a5.46,5.46,0,0,1-5.14,2.6.86.86,0,0,0-.92.48c-1.89,3-3.8,6.1-5.7,9.14a10.44,10.44,0,0,0-1.2,8.75c.7,2.47,1.53,4.9,2.22,7.37A17.29,17.29,0,0,1,113.49,84c-1.45,2.35-2.93,4.69-4.39,7l-.43.73a28,28,0,0,1,3.07,1.22c1.7.92,3.34,1.94,5,3q9.14,5.65,18.26,0c1.13-.7,2.22-1.44,3.36-2.13a19,19,0,0,1,10.13-2.63,2.17,2.17,0,0,1,2.27,2.14,2.23,2.23,0,0,1-2.15,2.28,24,24,0,0,0-5,.76A25.58,25.58,0,0,0,138.36,99a22.88,22.88,0,0,1-7.7,3.55c-5.88,1.14-11.42.4-16.47-3a21,21,0,0,0-6.66-3.46c-1.39-.34-1.38-.36-2.13.84l-31.18,49.9a5.86,5.86,0,0,1-6.31,2.8,65.63,65.63,0,0,1-21.72-9.08,66.58,66.58,0,0,1-16.8-14.63c-2.18-2.72-2.32-5-.49-8l8.78-14c.18-.28.34-.56.54-.89-1.61,0-3.15,0-4.68,0A18.25,18.25,0,0,1,24.35,100c-.87-.54-1.74-1.09-2.58-1.67a15.22,15.22,0,0,0-8.94-2.8,2.35,2.35,0,0,1-2.05-.87,2.21,2.21,0,0,1,1.8-3.55,19.11,19.11,0,0,1,10.35,2.74c1.28.78,2.5,1.63,3.78,2.41A16.21,16.21,0,0,0,41,97.63a2.57,2.57,0,0,0,1.22-1c8.48-13.53,17-27,25.38-40.62a18.49,18.49,0,0,1,14-9c2.27-.3,4.54-.66,6.78-1.13a9.85,9.85,0,0,0,6.36-4.56q2.92-4.62,5.78-9.29a1.1,1.1,0,0,0,0-.94,5.76,5.76,0,0,1,.25-6.06c.92-1.47,1.84-3,2.77-4.42A5.68,5.68,0,0,1,110.8,18,2.91,2.91,0,0,0,111.13,18ZM50,92.56l.55-.16a22,22,0,0,1,11.83-.82.88.88,0,0,0,1.11-.51c1.65-2.68,3.33-5.34,5-8,4.14-6.63,8.26-13.28,12.43-19.88A11.24,11.24,0,0,1,93.18,58c4.12,1,7.14,3.73,9.62,7.06a2.09,2.09,0,0,1,0,2.49c-1,1.57-2,3.13-2.92,4.72a1.51,1.51,0,0,0-.12,1.12,5.92,5.92,0,0,1-.65,5.23q-4.84,7.71-9.67,15.45l-1.72,2.78.14.16c1.1-.69,2.23-1.35,3.3-2.1a20.33,20.33,0,0,1,12.12-3.8,1.2,1.2,0,0,0,.84-.47q2.88-4.55,5.71-9.13a12.61,12.61,0,0,0,1.61-10.33c-.62-2.26-1.35-4.49-2-6.73a15.71,15.71,0,0,1,1.91-14.08c1.83-2.76,3.53-5.61,5.32-8.48l-12.19-7.62c-.22.33-.41.6-.58.88-1.74,2.79-3.47,5.58-5.23,8.36a14.27,14.27,0,0,1-9.14,6.63,63.6,63.6,0,0,1-6.85,1.16,14.55,14.55,0,0,0-11.42,7.26c-3.67,6.11-7.52,12.1-11.3,18.14C56.6,82,53.33,87.17,50,92.56Zm10.5,3.27a1.74,1.74,0,0,0-.32-.13A16.05,16.05,0,0,0,49.4,97.88c-1.4.89-2.8,1.76-4.19,2.67a2.13,2.13,0,0,0-.67.7q-6.06,9.66-12.08,19.32a1.57,1.57,0,0,0,.14,2.25,56.14,56.14,0,0,0,10.84,10.44,65.69,65.69,0,0,0,24.73,11.9c1.41.32,1.75.18,2.52-1.06l29.69-47.5.53-.88c-.53.08-.88.11-1.23.18a16.78,16.78,0,0,0-6.49,3,21.14,21.14,0,0,1-8.47,3.79,1.69,1.69,0,0,0-1.26.9c-5.09,8.19-10.22,16.35-15.3,24.54A7.79,7.79,0,0,1,64,131.5c-5.19,1.82-9.77.54-13.73-3a10.13,10.13,0,0,1-1.78-13.56c2-3,3.85-6.12,5.77-9.19ZM65,97.07c-.18.26-.33.46-.46.66-4.17,6.67-8.32,13.36-12.51,20a5.19,5.19,0,0,0-.21,5.49,9.3,9.3,0,0,0,9.4,4.55,4.86,4.86,0,0,0,3.47-2.37c4.44-7.22,9-14.39,13.45-21.58.15-.25.3-.5.51-.87-4.4-.21-8-2.16-11.44-4.54C66.46,97.94,65.71,97.53,65,97.07Zm15-24L67.29,93.26c1.52,1,3,1.9,4.44,2.86a15.4,15.4,0,0,0,8.94,2.52,1.1,1.1,0,0,0,1-.6c3-4.9,6.11-9.78,9.17-14.68.32-.52.63-1,1-1.64C86.27,81.05,82.16,78.48,79.91,73.06Zm28.6-51.24a5.32,5.32,0,0,0-1.06.93c-1,1.52-2,3.08-2.9,4.63a1.32,1.32,0,0,0,.49,2.09q7.74,4.86,15.5,9.7c1,.61,1.58.46,2.21-.54,1-1.49,1.88-3,2.81-4.5a1.35,1.35,0,0,0-.51-2.16q-7.74-4.84-15.51-9.68A9.76,9.76,0,0,0,108.51,21.82Zm15.92,4.55,4.49-5.82-10.78-6.74-3.26,6.59ZM85,73.3l3.68-5.89c1.07-1.71,1.88-2,3.72-1.16,1.49.72,2.89,1.66,4.37,2.53.37-.58.84-1.26,1.23-2a.82.82,0,0,0-.11-.75,49.29,49.29,0,0,0-4.21-3.17,5.7,5.7,0,0,0-4.17-.66C84.28,63.25,82,68.59,85,73.3Zm6.77-2.47-3.47,5.54c1.2.31,2.23.66,3.3.83a4.4,4.4,0,0,0,3-.45c1-.63,1.22-1.21.7-2.28A9.14,9.14,0,0,0,91.76,70.83Z" transform="translate(-10.31 -9.32)"/><path class="cls-2" d="M44.76,24.29c-3.68-.52-4.41-.94-4.38-2.47s.85-2,4.44-2.35c0-.64,0-1.31,0-2a2.28,2.28,0,0,1,2.28-2.34,2.34,2.34,0,0,1,2.2,2.43c0,.6,0,1.2,0,1.89,1.79.29,4.38-.43,4.36,2.42s-2.5,2.14-4.32,2.32c-.13,1.84.42,4.3-2.32,4.29S44.88,26.1,44.76,24.29Z" transform="translate(-10.31 -9.32)"/><path class="cls-3" d="M136.58,71.64c-3.68-.52-4.41-.94-4.38-2.47s.85-2,4.44-2.35c0-.64,0-1.31,0-2a2.28,2.28,0,0,1,2.28-2.34,2.34,2.34,0,0,1,2.2,2.43c0,.6,0,1.2,0,1.89,1.79.29,4.38-.43,4.36,2.41s-2.5,2.15-4.32,2.33c-.13,1.83.42,4.3-2.32,4.29S136.7,73.45,136.58,71.64Z" transform="translate(-10.31 -9.32)"/><path class="cls-4" d="M112.62,137.05c-3.68-.51-4.41-.93-4.38-2.47s.85-2,4.44-2.35c0-.64,0-1.31,0-2a2.29,2.29,0,0,1,2.28-2.34,2.34,2.34,0,0,1,2.2,2.43c0,.61,0,1.21,0,1.9,1.79.28,4.38-.44,4.36,2.41s-2.5,2.14-4.31,2.32c-.14,1.84.41,4.3-2.33,4.3S112.74,138.86,112.62,137.05Z" transform="translate(-10.31 -9.32)"/></svg>