<svg id="Capa_1" data-name="Capa 1" xmlns="http://www.w3.org/2000/svg" xmlns:xlink="http://www.w3.org/1999/xlink" viewBox="0 0 129.35 118.91"><defs><style>.cls-1{fill:url(#Degradado_sin_nombre_16);}.cls-2{fill:url(#Degradado_sin_nombre_16-2);}.cls-3{fill:url(#Degradado_sin_nombre_16-3);}.cls-4{fill:url(#Degradado_sin_nombre_16-4);}.cls-5{fill:url(#Degradado_sin_nombre_16-5);}</style><linearGradient id="Degradado_sin_nombre_16" x1="45.86" y1="17.4" x2="122.57" y2="177.42" gradientUnits="userSpaceOnUse"><stop offset="0.17" stop-color="#458ecc"/><stop offset="0.28" stop-color="#4a8bca"/><stop offset="0.41" stop-color="#5882c3"/><stop offset="0.56" stop-color="#7074b9"/><stop offset="0.71" stop-color="#9160aa"/><stop offset="0.86" stop-color="#bb4797"/><stop offset="1" stop-color="#e82c83"/></linearGradient><linearGradient id="Degradado_sin_nombre_16-2" x1="29.7" y1="25.15" x2="106.41" y2="185.17" xlink:href="#Degradado_sin_nombre_16"/><linearGradient id="Degradado_sin_nombre_16-3" x1="107.87" y1="-12.32" x2="184.58" y2="147.7" xlink:href="#Degradado_sin_nombre_16"/><linearGradient id="Degradado_sin_nombre_16-4" x1="11.88" y1="33.7" x2="88.59" y2="193.71" xlink:href="#Degradado_sin_nombre_16"/><linearGradient id="Degradado_sin_nombre_16-5" x1="64.24" y1="8.59" x2="140.95" y2="168.61" xlink:href="#Degradado_sin_nombre_16"/></defs><path class="cls-1" d="M50.27,124.6a26.31,26.31,0,0,1,5.83-11.3,23,23,0,0,0-10.6,0,25,25,0,0,0-9.25,4.2c-3.88,2.79-8.12,3-11.36.5a9.92,9.92,0,0,1-2.57-3c-2.12-4-4.09-8-6.07-12.07a6.46,6.46,0,0,1,3.6-9.21A11.27,11.27,0,0,1,33.74,98l.53.82a37.31,37.31,0,0,1,29.39-7L65.52,87a26.52,26.52,0,0,1-4.81,0,7.75,7.75,0,0,1-5.62-4.32Q50.63,73.86,46.27,65a8.71,8.71,0,0,1,5.54-12.16v-4.5H50.44c-5.62,0-11.23,0-16.84,0-1.66,0-3-.46-3.71-2.07s0-2.92,1.18-4.06c1.58-1.52,3.12-3.07,4.85-4.77-1.83-1.79-3.59-3.47-5.3-5.2a3.06,3.06,0,0,1-.72-3.6,3.3,3.3,0,0,1,3.1-2H53.5c1.91,0,2.7.78,2.7,2.68q0,11,0,21.9v1.65c3.6.88,5.29,3.67,6.74,6.77s3,5.94,4.47,9l6.19-1.37c-4.42-7-5.63-14.44-3.22-22.32A25.06,25.06,0,0,1,79.47,32a26,26,0,0,1,38.62,8.53,25.52,25.52,0,0,1,3,11.88,26.47,26.47,0,0,1-2.8,12.06c4.52,1.53,7.17,4.44,7.15,9.52l4.6-2.14c2-.91,3.86-2,6.18-2a8.72,8.72,0,0,1,8.26,6.27,8.32,8.32,0,0,1-3.84,9.7c-4.45,2.29-9,4.32-13.64,6.26a30.75,30.75,0,0,1-5.34,1.26c1.53,1.65,3.21,3.3,4.7,5.1,3,3.69,5.33,7.76,5.86,12.64a15.14,15.14,0,0,1-1.75,9.17c-3.09,5.55-7.6,9.41-13.95,10.75a19,19,0,0,1-12-1.76A16.91,16.91,0,0,1,102,128c-2-1.33-3.82-2.39-6.49-2.23-1.86.11-3.86-1.19-5.73-2a3.91,3.91,0,0,0-2.7-.3c-2.17.49-4.43.54-6.63.91-5.85,1-11.2,3.08-14.87,8a41.83,41.83,0,0,0-3.92,7.44,8.94,8.94,0,0,1-6.51,5.45,7.32,7.32,0,0,1-4.94-.52c-4.45-2.3-8.94-4.54-13.3-7a6.33,6.33,0,0,1-2.1-8.84c3.15-5.31,8.37-7.07,14.12-4.79Zm14.6-18.38,1.21-.62a52.14,52.14,0,0,1,15.17-5.34c1.63-.29,2.81.33,3,1.63.24,1.45-.58,2.37-2.29,2.71a46,46,0,0,0-16.77,6.7c-6.13,4.1-10.28,9.52-11.12,17.09-.22,1.93-2,2.59-3.69,1.54A17.37,17.37,0,0,0,46.74,128c-3.34-1.12-6.11-.14-7.82,2.57-1.05,1.67-.78,2.8.95,3.73,3.29,1.79,6.69,3.41,9.88,5.36,4.12,2.51,7,1.49,8.49-3a22.52,22.52,0,0,1,4.19-7.59c5.62-6.5,13.07-8.94,21.31-9.52a10.41,10.41,0,0,0,5.84-2.09,13.92,13.92,0,0,0,4.81-7.82c.59-2.23.87-4.54,1.49-6.77,1.83-6.56,5.6-12,10.05-17,1.48-1.68,2.31-1.73,4.09-.45,5.19,3.7,10.83,4.55,16.75,2.17,3.9-1.56,7.66-3.47,11.46-5.28a3.82,3.82,0,0,0,2.14-4.08,4.25,4.25,0,0,0-6.13-3.39c-3.49,1.56-6.93,3.25-10.45,4.76a8.3,8.3,0,0,1-9.09-1.4c-1.66-1.37-3.29-2.76-4.86-4.09-11,6.56-21.58,6-31.81-1.75C71.68,82.81,66.34,93.61,64.87,106.22Zm22.65-66.5a21.75,21.75,0,0,0-10.7,2.52,2.43,2.43,0,0,0-1.08,1,21.06,21.06,0,0,0-.07,18.64A2.78,2.78,0,0,0,76.88,63a21.28,21.28,0,0,0,8.67,2.48c5.73.41,11.1-.71,15.72-4.29,6.22-4.82,6.13-12.51-.15-17.25A22.25,22.25,0,0,0,87.52,39.72ZM62.22,96.16A.74.74,0,0,0,62,96a32.25,32.25,0,0,0-25.72,6.82c-3.16,2.51-3.64,2.47-5.46-1-1.94-3.74-5.46-5.39-9-4.2-1.88.63-2.41,1.85-1.54,3.62,1.9,3.85,3.8,7.7,5.73,11.53a4.3,4.3,0,0,0,6.27,2c1.41-.76,2.74-1.66,4.15-2.42,7.18-3.9,14.69-5.23,22.66-2.78,1.06.33,1.25-.21,1.32-1.05.17-1.93.27-3.87.56-5.79C61.31,100.51,61.8,98.34,62.22,96.16ZM81.8,69.38c7.22,6.2,20.43,6.84,28.81-2a21.51,21.51,0,0,0-1-30.71c-8.91-8-21.55-6.49-27.8-.74a31.3,31.3,0,0,1,10.35-.18c5.89.94,11,3.34,14.9,8a13.24,13.24,0,0,1,1.49,15.44c-2.5,4.55-6.45,7.38-11.21,9.15A29.06,29.06,0,0,1,81.8,69.38ZM73.22,72,67.51,73.2c-2.05.44-2.58.18-3.52-1.66-2-4-4-8-6.08-11.92a4.28,4.28,0,1,0-7.68,3.76c2.82,5.74,5.7,11.45,8.57,17.16a3.41,3.41,0,0,0,2.87,2.22,20.78,20.78,0,0,0,5.93-.9c.73-.24,1.09-1.69,1.6-2.59.33-.59.62-1.2.94-1.78C71.13,75.7,72.13,73.92,73.22,72Zm43.13,22.78A28.68,28.68,0,0,1,115,97.5c-.56.93-.38,1.5.44,2.2a26.4,26.4,0,0,1,7.2,8.85c1.61,3.49,1.36,6.8-1.2,9.78-2.75,3.2-6.1,5.16-10.45,4a46.8,46.8,0,0,1-6.2-2.56l-1.95,3.38c7.11,5.32,14.93,5,20.74-.83,3.38-3.4,5.15-7.4,4-12.26C126,103.42,121.33,99.05,116.35,94.74Zm-8-5c-.82,1-1.7,2-2.49,3.13-3.3,4.5-5.85,9.31-6.5,15A19.89,19.89,0,0,1,95,118.21c-.6.75-1.26,1.45-1.9,2.18,3.56,2.12,5.9,1.41,7.58-2.23q4.91-10.59,9.8-21.18c.77-1.67,1.55-3.34,2.33-5ZM35.56,43.83H51.78V31.18H36l-.2.3c1.15,1.09,2.33,2.15,3.45,3.27,1.94,1.93,1.93,3.6,0,5.54C38.11,41.41,37,42.49,35.56,43.83Zm77.13,59.07c-1.92,4.14-3.77,8.1-5.55,12.08a1.11,1.11,0,0,0,.45,1,32,32,0,0,0,4.65,2.15c2.6.83,4.27-.81,5.87-2.53a4.17,4.17,0,0,0,.69-4.91C117.5,107.59,115.2,105.32,112.69,102.9Zm.53-31.65c1.38,1.16,2.64,2.28,4,3.3a9.65,9.65,0,0,0,2.19,1.19,1,1,0,0,0,.93-.3,4.14,4.14,0,0,0-1-5.53,8.17,8.17,0,0,0-3.3-1.44c-.48-.07-1.15,1-1.72,1.63C113.94,70.43,113.64,70.78,113.22,71.25Z" transform="translate(-15.48 -26.65)"/><path class="cls-2" d="M86.56,136.73c3.36.34,4.22.8,4.27,2.26s-.85,2-4.23,2.38c-.21,1.69.38,4-2.36,4.18-1.45.1-1.93-.88-2.26-4.21-1.69-.19-4.18.38-4.13-2.35,0-2.53,2.34-2.1,4.15-2.21.2-1.75-.35-4.24,2.37-4.18C86.89,132.65,86.47,135,86.56,136.73Z" transform="translate(-15.48 -26.65)"/><path class="cls-3" d="M127.45,35.54c-3.57-.5-4.28-.91-4.25-2.4s.83-1.94,4.31-2.28c0-.62,0-1.28,0-1.92a2.22,2.22,0,0,1,2.21-2.28A2.28,2.28,0,0,1,131.87,29c0,.59,0,1.17,0,1.84,1.75.28,4.26-.42,4.24,2.35s-2.42,2.08-4.19,2.26c-.13,1.78.41,4.17-2.25,4.17S127.58,37.3,127.45,35.54Z" transform="translate(-15.48 -26.65)"/><path class="cls-4" d="M28,74.28c-1.74-.19-4.19.54-4.19-2.2s2.42-2,4.19-2.19c.22-1.75-.57-4.25,2.29-4.22s1.92,2.5,2.23,4.19c1.68.23,4.14-.57,4.15,2.19s-2.42,2-4.13,2.24c-.35,1.68.54,4.25-2.36,4.19C27.48,78.42,28.24,76,28,74.28Z" transform="translate(-15.48 -26.65)"/><path class="cls-5" d="M75.69,51.29a8.9,8.9,0,0,1,3.8-6.66,14.93,14.93,0,0,1,9-2.8A2.22,2.22,0,0,1,90.83,44c0,1.14-.9,1.94-2.16,2.2A33.81,33.81,0,0,0,83,47.67a5,5,0,0,0-3,4.5c-.21,1.9-.92,2.7-2.35,2.6S75.64,53.78,75.69,51.29Z" transform="translate(-15.48 -26.65)"/></svg>