<svg id="Capa_1" data-name="Capa 1" xmlns="http://www.w3.org/2000/svg" xmlns:xlink="http://www.w3.org/1999/xlink" viewBox="0 0 125.32 141.78"><defs><style>.cls-1{fill:url(#Degradado_sin_nombre_16);}.cls-2{fill:url(#Degradado_sin_nombre_16-2);}.cls-3{fill:url(#Degradado_sin_nombre_16-3);}.cls-4{fill:url(#Degradado_sin_nombre_16-4);}.cls-5{fill:url(#Degradado_sin_nombre_16-5);}.cls-6{fill:url(#Degradado_sin_nombre_16-6);}.cls-7{fill:url(#Degradado_sin_nombre_16-7);}.cls-8{fill:url(#Degradado_sin_nombre_16-8);}.cls-9{fill:url(#Degradado_sin_nombre_16-9);}</style><linearGradient id="Degradado_sin_nombre_16" x1="25.49" y1="0.17" x2="174.93" y2="181.88" gradientUnits="userSpaceOnUse"><stop offset="0.17" stop-color="#458ecc"/><stop offset="0.28" stop-color="#4a8bca"/><stop offset="0.41" stop-color="#5882c3"/><stop offset="0.56" stop-color="#7074b9"/><stop offset="0.71" stop-color="#9160aa"/><stop offset="0.86" stop-color="#bb4797"/><stop offset="1" stop-color="#e82c83"/></linearGradient><linearGradient id="Degradado_sin_nombre_16-2" x1="14.62" y1="9.12" x2="164.05" y2="190.82" xlink:href="#Degradado_sin_nombre_16"/><linearGradient id="Degradado_sin_nombre_16-3" x1="3.78" y1="18.03" x2="153.22" y2="199.73" xlink:href="#Degradado_sin_nombre_16"/><linearGradient id="Degradado_sin_nombre_16-4" x1="46.21" y1="-16.87" x2="195.65" y2="164.83" xlink:href="#Degradado_sin_nombre_16"/><linearGradient id="Degradado_sin_nombre_16-5" x1="14.91" y1="8.87" x2="164.35" y2="190.58" xlink:href="#Degradado_sin_nombre_16"/><linearGradient id="Degradado_sin_nombre_16-6" x1="33.24" y1="-6.2" x2="182.68" y2="175.5" xlink:href="#Degradado_sin_nombre_16"/><linearGradient id="Degradado_sin_nombre_16-7" x1="5.97" y1="-8.7" x2="155.41" y2="173.01" xlink:href="#Degradado_sin_nombre_16"/><linearGradient id="Degradado_sin_nombre_16-8" x1="-9.98" y1="4.42" x2="139.46" y2="186.13" xlink:href="#Degradado_sin_nombre_16"/><linearGradient id="Degradado_sin_nombre_16-9" x1="21.16" y1="-21.19" x2="170.6" y2="160.51" xlink:href="#Degradado_sin_nombre_16"/></defs><path class="cls-1" d="M48.78,152.67a3,3,0,0,1-1.33-2.83c0-5.55,0-11.09,0-16.63a22.29,22.29,0,0,1,16.27-21.36c1.48-.44,2.61-2,3.95-3a28.6,28.6,0,0,1,2.68-1.49c-.13-.17-.35-.76-.77-1A31.61,31.61,0,0,1,56.43,94.23a2.06,2.06,0,0,0-2.12-1.16c-1.77.09-3.54.05-5.32,0a9.55,9.55,0,0,1-5.66-17.22,2,2,0,0,0,.69-1.4c.06-4.21.08-8.42,0-12.63a2.76,2.76,0,0,0-1.07-1.75,22.17,22.17,0,0,1-7-8.24c-2.34-5.2-1.41-10.12,1.47-14.79a39.16,39.16,0,0,1,3.3-4.32c1-1.23,2.14-1.37,3.12-.56s.89,2,0,3.18a41.61,41.61,0,0,0-3.3,4.48c-3.26,5.71-2,11.58,3.43,15.67.08-1.28.17-2.49.23-3.7.23-4.67,4.31-9,10.31-9,12.68.06,25.36,0,38,0,2.79,0,5.59,0,8.38,0,.52,0,1.21,0,1.51.3.51.52,1.13,1.34,1,1.92s-.89,1.3-1.53,1.7c-.43.26-1.13.11-1.7.11H54.6c-3.19,0-5.32,1.4-6.16,4-.13.41-.17.85-.28,1.39h70.78A5.23,5.23,0,0,0,114.48,47c-1.44-.2-2.92-.14-4.38-.2s-2.44-.84-2.39-2.08,1-1.94,2.41-1.95c2.47,0,5-.22,7.31.91,3.9,1.9,5.67,5.15,5.78,9.4,0,.75,0,1.5,0,2.29,3-1.53,5.69-6.81,5.32-10.08-.49-4.29-2.72-7.62-5.65-10.55-5.61-5.61-12.49-9.08-20-11.4A64.54,64.54,0,0,0,76.65,20.9a61.33,61.33,0,0,0-22.59,6.79c-1.36.72-2.65,1.6-4,2.38s-2.49.59-3.14-.47-.26-2.14,1.06-3a63.46,63.46,0,0,1,27.52-9.66,68.09,68.09,0,0,1,30,3c7.78,2.59,14.89,6.4,20.65,12.37,3.68,3.82,6.38,8.19,6.4,13.73,0,4.74-2.29,8.44-5.52,11.67a8.75,8.75,0,0,1-1.9,1.66c-1.73.93-2.05,2.32-2,4.17.15,3.59,0,7.18.08,10.77a2.36,2.36,0,0,0,.8,1.6,9.59,9.59,0,0,1,3.22,10.72,9.41,9.41,0,0,1-8.73,6.42c-2,.05-4,0-6,.06a2,2,0,0,0-1.45.8,32.82,32.82,0,0,1-13.56,12.55c-.37.19-.55.72-.66.87a16.86,16.86,0,0,1,3,1.81,14.19,14.19,0,0,0,5.41,3.37,21.77,21.77,0,0,1,14.52,20.15c.08,5.8,0,11.61,0,17.42a2.88,2.88,0,0,1-1.33,2.57ZM56,62.76a7.37,7.37,0,0,0-.09.75q0,7.11,0,14.23a27.23,27.23,0,0,0,1.68,9.62,27.75,27.75,0,0,0,53.8-8.29c.15-5.14.06-10.29.07-15.43a8.26,8.26,0,0,0-.09-.85C102.9,68.46,93.46,70,83.7,70S64.47,68.51,56,62.76Zm8.52,53a44.07,44.07,0,0,0-4.66,2.36c-4.81,3.19-7.74,7.66-8.08,13.46-.29,5-.16,9.92-.22,14.88,0,.69,0,1.39,0,2.16H76.05c.55-6.53,1.39-13,1.79-19.64a2.9,2.9,0,0,0-.58.18c-.79.78-1.57,1.57-2.37,2.34-1.42,1.37-2.83,1.14-3.7-.65-.6-1.23-1.11-2.5-1.67-3.75Zm51.2,32.89a5.36,5.36,0,0,0,.08-.63c0-4.83,0-9.66,0-14.49a18.24,18.24,0,0,0-1.8-8.08,18,18,0,0,0-11.2-9.52c-.28.6-.52,1.11-.75,1.63-1.92,4.32-3.83,8.64-5.77,13-1,2.24-2.33,2.47-4.06.76l-2.34-2.33-.46.24q.93,9.7,1.87,19.46Zm-4.3-92.1H56c1,1.92,3.36,3.87,6.17,5.19a47.27,47.27,0,0,0,18.26,4.1c8.5.38,16.81-.48,24.64-4.12A13.65,13.65,0,0,0,111.37,56.54ZM81.85,130.88c-.59,6-1.15,11.81-1.73,17.7h7c-.58-6-1.16-11.85-1.74-17.7ZM74.59,108.4c0,1.15-.53,2.19.63,3q3.7,2.58,7.35,5.24a1.59,1.59,0,0,0,2.13,0c2.24-1.65,4.47-3.34,6.81-4.84,1.38-.87,1.42-1.93,1.12-3.37A33.3,33.3,0,0,1,74.59,108.4ZM53.48,89.06l-2-10.94c-.78,0-1.67,0-2.55,0A5.46,5.46,0,0,0,48.6,89C50.28,89.16,52,89.06,53.48,89.06Zm60.31,0a48.24,48.24,0,0,0,5.09,0,5.38,5.38,0,0,0,4.72-6.58c-.78-3.42-3.78-5-7.79-4.15C115.13,81.91,114.46,85.46,113.79,89ZM97.57,112.39,87,120l6.54,6.55,5.51-12.39Zm-27.77.09c-1.67,1.45-1.68,1.45-.85,3.32,1.13,2.54,2.25,5.09,3.38,7.63.48,1.08,1,2.16,1.41,3.14L80.33,120ZM48.26,56.57v17.3h3.48V59.29C51.74,56,51.74,56,48.26,56.57ZM119,73.91V56.42a13.1,13.1,0,0,1-1.78,0c-1.36-.2-1.74.34-1.71,1.68.08,4.25,0,8.5,0,12.75v3.07ZM80.48,126a6.33,6.33,0,0,0,6.14.06l-3-3.14Zm53-2.15c-3.68-.52-4.4-.94-4.37-2.47s.85-2,4.43-2.35c0-.65,0-1.32,0-2a2.29,2.29,0,0,1,2.27-2.35,2.36,2.36,0,0,1,2.21,2.44c0,.6,0,1.2,0,1.89,1.8.29,4.39-.43,4.36,2.41s-2.49,2.15-4.31,2.33c-.14,1.83.42,4.29-2.32,4.29S133.6,125.67,133.47,123.86Zm-112-61.79c-3.68-.52-4.41-.94-4.38-2.47s.85-2,4.44-2.35c0-.64,0-1.31,0-2a2.28,2.28,0,0,1,2.28-2.34A2.34,2.34,0,0,1,26,55.36c0,.6,0,1.21,0,1.89,1.79.29,4.38-.43,4.36,2.42s-2.5,2.14-4.31,2.32c-.14,1.84.41,4.3-2.33,4.29S21.57,63.88,21.45,62.07ZM132.39,20c-3.68-.52-4.41-.94-4.38-2.47s.86-2,4.44-2.35c0-.64,0-1.31,0-2a2.27,2.27,0,0,1,2.27-2.34,2.34,2.34,0,0,1,2.21,2.43c0,.6,0,1.2,0,1.89,1.79.29,4.39-.43,4.36,2.42S138.81,19.77,137,20c-.14,1.84.42,4.3-2.32,4.29S132.52,21.84,132.39,20Z" transform="translate(-17.07 -10.89)"/><path class="cls-2" d="M83.78,98.11A9.78,9.78,0,0,1,76,94.39c-.85-1-.84-2.11,0-2.81a1.76,1.76,0,0,1,2.73.48,6.2,6.2,0,0,0,9.83,0,1.75,1.75,0,0,1,2.65-.5c.85.68.87,1.74.07,2.81A9.77,9.77,0,0,1,83.78,98.11Z" transform="translate(-17.07 -10.89)"/><path class="cls-3" d="M103.59,141.45c-1.42,0-2.83,0-4.25,0s-2.41-.84-2.39-2.08.83-2,2.33-2c2.87-.06,5.75-.06,8.62,0,1.5,0,2.31.81,2.33,2s-.86,2-2.4,2.08S105,141.45,103.59,141.45Z" transform="translate(-17.07 -10.89)"/><path class="cls-4" d="M92.64,32.86h-3c-.91,0-1.23-.31-1.28-1.2a4.23,4.23,0,0,0-8.41-.26,4.25,4.25,0,0,0,3.49,4.69c.24,0,.5,0,.75.06A.93.93,0,1,1,84,38a6.26,6.26,0,0,1-3.37-1.1,1.74,1.74,0,0,0-.83-.27c-.88,0-1.76,0-2.63,0a3.64,3.64,0,0,1-3.24-3.46.53.53,0,0,0-.38-.54,3.65,3.65,0,0,1-2.41-3.43c0-.37,0-.75,0-1.13A1,1,0,0,1,72.23,27c2.64,0,5.27,0,7.91,0a1.57,1.57,0,0,0,.74-.2,6.07,6.07,0,0,1,6.47,0,1.65,1.65,0,0,0,.75.2c2.58,0,5.16,0,7.74,0,1,0,1.29.3,1.27,1.29A8.91,8.91,0,0,1,97,30.12,3.43,3.43,0,0,1,94.7,32.6a.53.53,0,0,0-.39.53,3.65,3.65,0,0,1-3.06,3.45,3.29,3.29,0,0,1-.54.05,1,1,0,0,1-1-.86,1,1,0,0,1,.86-1,3.09,3.09,0,0,0,1.3-.54A5,5,0,0,0,92.64,32.86Zm-19.57-4a1.72,1.72,0,0,0,1.41,2.1c1.19.07,2.39,0,3.55,0l.76-2.11Zm22.1,0H89.46L90.21,31c1.08,0,2.16,0,3.25,0A1.74,1.74,0,0,0,95.17,28.85ZM78.66,34.71l-.61-1.81H75.8C75.9,34.38,76.89,35,78.66,34.71Z" transform="translate(-17.07 -10.89)"/><path class="cls-5" d="M81,68.85V80.23s0,4.09-3.68,4.2H62.55a4.85,4.85,0,0,1-4.74-5.05l-.16-17.2,5.19,2.09V77.06a2.67,2.67,0,0,0,3,2.79l8.15,0s2.26.28,2.11-2.34V67.54Z" transform="translate(-17.07 -10.89)"/><path class="cls-6" d="M86,68.85V80.23s0,4.09,3.69,4.2h14.75a4.84,4.84,0,0,0,4.73-5.05l.17-17.2-5.19,2.09V77.06a2.67,2.67,0,0,1-3,2.79l-8.15,0s-2.26.28-2.11-2.34V67.54Z" transform="translate(-17.07 -10.89)"/><rect class="cls-7" x="61.72" y="62.42" width="8.35" height="3.49"/><rect class="cls-8" x="34.61" y="61.98" width="8.35" height="3.49"/><rect class="cls-9" x="87.19" y="62.42" width="8.35" height="3.49"/></svg>