<svg id="Capa_1" data-name="Capa 1" xmlns="http://www.w3.org/2000/svg" xmlns:xlink="http://www.w3.org/1999/xlink" viewBox="0 0 146.29 148.13"><defs><style>.cls-1{fill:url(#Degradado_sin_nombre_16);}.cls-2{fill:url(#Degradado_sin_nombre_16-2);}.cls-3{fill:url(#Degradado_sin_nombre_16-3);}.cls-4{fill:url(#Degradado_sin_nombre_16-4);}.cls-5{fill:url(#Degradado_sin_nombre_16-5);}.cls-6{fill:url(#Degradado_sin_nombre_16-6);}.cls-7{fill:url(#Degradado_sin_nombre_16-7);}</style><linearGradient id="Degradado_sin_nombre_16" x1="26.6" y1="5.96" x2="147.17" y2="204.08" gradientUnits="userSpaceOnUse"><stop offset="0.17" stop-color="#458ecc"/><stop offset="0.28" stop-color="#4a8bca"/><stop offset="0.41" stop-color="#5882c3"/><stop offset="0.56" stop-color="#7074b9"/><stop offset="0.71" stop-color="#9160aa"/><stop offset="0.86" stop-color="#bb4797"/><stop offset="1" stop-color="#e82c83"/></linearGradient><linearGradient id="Degradado_sin_nombre_16-2" x1="81.35" y1="-27.36" x2="201.92" y2="170.76" xlink:href="#Degradado_sin_nombre_16"/><linearGradient id="Degradado_sin_nombre_16-3" x1="82.54" y1="-28.09" x2="203.11" y2="170.03" xlink:href="#Degradado_sin_nombre_16"/><linearGradient id="Degradado_sin_nombre_16-4" x1="47.41" y1="-6.71" x2="167.98" y2="191.41" xlink:href="#Degradado_sin_nombre_16"/><linearGradient id="Degradado_sin_nombre_16-5" x1="84.75" y1="-29.43" x2="205.32" y2="168.69" xlink:href="#Degradado_sin_nombre_16"/><linearGradient id="Degradado_sin_nombre_16-6" x1="48.7" y1="55.83" x2="169.27" y2="253.95" xlink:href="#Degradado_sin_nombre_16"/><linearGradient id="Degradado_sin_nombre_16-7" x1="-0.58" y1="5.61" x2="119.99" y2="203.73" xlink:href="#Degradado_sin_nombre_16"/></defs><path class="cls-1" d="M85.94,22.35a45.57,45.57,0,0,1,.64,4.95,1.32,1.32,0,0,0,1,1.3,5.94,5.94,0,0,1,3.85,6.65,6,6,0,0,1-5.31,5c-.33,0-.67.12-1.12.2A24.52,24.52,0,0,1,82,53l2.82.55c1.64.32,2.25,1.25,1.81,2.88-1.07,3.95-2.17,7.9-3.23,11.86a1.72,1.72,0,0,0,0,1.09,21.45,21.45,0,0,1,1.94,10.23,4.41,4.41,0,0,0,.12.53H87.9c3.21,0,6.43,0,9.64,0a1.26,1.26,0,0,0,1.39-.8,3.21,3.21,0,0,1,3.1-1.9c1.72,0,3.43,0,5.14,0a3.53,3.53,0,0,1,3.29,2.06,1.81,1.81,0,0,0,1.17.88c3.1.36,6.21.75,9.32.88,1.77.07,3.56-.47,5.35-.51,9.4-.26,17.44,2.87,23.88,9.82a21.69,21.69,0,0,1,4.69,8.17,4,4,0,0,0,.28.54v44.23a3.59,3.59,0,0,1-3,1.05c-3.56-.07-7.11,0-10.67,0-1.81,0-2.53-.66-2.5-2.45A103.29,103.29,0,0,0,137.66,124,64.13,64.13,0,0,0,132,105.14c-2.35-4.66-5.39-8.74-9.9-11.56a2.79,2.79,0,0,0-1.51-.51c-3.28.25-6.55.59-9.33.85-2.17,1.64-1.83,3.55-1.59,5.49a6.11,6.11,0,0,1-.2,2.16c-1.08,4.41-4.64,7.15-9.4,7.19-4.46,0-8.91,0-13.37,0-.45,0-.9,0-1.43.07,0,4.16,0,8.18,0,12.2a3.6,3.6,0,0,0,.41,1.33c1.43,3.39,2.88,6.77,4.3,10.16.77,1.83,0,3-2,3.14-.88,0-1.77,0-2.76,0,0,2.23,0,4.28,0,6.33s-.59,2.54-2.49,2.54H48.18c-1.87,0-2.52-.66-2.53-2.56,0-2.05,0-4.1,0-6.31-.91,0-1.71,0-2.52,0-2.14-.06-2.92-1.25-2.13-3.22l.74-1.79a49.2,49.2,0,0,1-5.3,0,14.89,14.89,0,0,1-12.93-14.49q0-22.5,0-45A15,15,0,0,1,45.05,57.82,41.16,41.16,0,0,1,50,61.17a1.74,1.74,0,0,0,0-.45c-.62-3.32-1.24-6.64-1.9-9.95-.45-2.3-.21-2.8,1.84-3.62l-.57-6.73c-.2-.05-.48-.15-.77-.2a6.07,6.07,0,0,1-5.25-5.33,6.19,6.19,0,0,1,4.21-6.48,2,2,0,0,0,1.06-1.16A19.43,19.43,0,0,1,58.86,14.91c6.31-3.25,14.54-.93,16.23-.45a.86.86,0,0,0,.79-.2C81,8.88,85.11,18.61,85.94,22.35ZM81.32,94.16h-3c-1.82,0-2.37-.41-2.79-2.15-1.15-4.64-2.26-9.29-3.43-13.93a30.37,30.37,0,0,0-1.57-5.26A5.07,5.07,0,0,0,64,70.46,5.32,5.32,0,0,0,60.83,77c.59,2.49,1.25,5,1.84,7.46a1.9,1.9,0,0,1-1.38,2.38A1.86,1.86,0,0,1,59,85.51a10.57,10.57,0,0,1-.39-1.36,67.81,67.81,0,0,1-1.82-8.24c-.5-4.79,3.07-8.89,8-9.68a9.27,9.27,0,0,1,10.08,6.91c.67,2.47,1.24,5,1.86,7.46.79,3.21,1.6,6.43,2.38,9.6h2.27c0-4,0-7.86,0-11.75a24.11,24.11,0,0,0-.24-3.06C79.94,66.9,71,60.64,62.63,62.38a15.88,15.88,0,0,0-13,16c0,10.8,0,21.6,0,32.39,0,.42,0,.83.07,1.28H81.27v-3.33c-3.09,0-6.08,0-9.08,0a9.24,9.24,0,0,1-9.21-7c-.69-2.51-1.3-5-1.89-7.58-.34-1.45.24-2.44,1.45-2.68s2,.42,2.35,1.8c.62,2.44,1.19,4.9,1.82,7.33a5.29,5.29,0,0,0,5.23,4.12c1.07,0,2.14,0,3.21,0h6.17Zm70,46.49c0-5.46,0-10.77,0-16.08a11.42,11.42,0,0,0-.43-2.78c-2.13-8.23-5.27-15.91-11.8-21.76a2,2,0,0,1-.29-2.67,1.94,1.94,0,0,1,2.75-.31A11.49,11.49,0,0,1,143,98.3a38,38,0,0,1,7.6,11c.17.35.38.69.74,1.35,0-3.17.06-6,0-8.73a10.34,10.34,0,0,0-.66-3.35,20.81,20.81,0,0,0-10.08-10.71,26.66,26.66,0,0,0-17-3c0,1.52,0,2.93,0,4.33a1.5,1.5,0,0,0,.67,1,30.3,30.3,0,0,1,10.16,11.2c5.26,9.48,7.21,19.86,8.18,30.48.26,2.89.35,5.79.52,8.73ZM27.67,117.81c.81,6,7.21,10.26,13.1,8.87,1.13-.27,2.65-.59,3.16-1.41a10.25,10.25,0,0,0,1.65-5c.13-13.89.07-27.77.07-41.65a21.13,21.13,0,0,1,2.7-10.56,2.17,2.17,0,0,0,0-1.73,11.09,11.09,0,0,0-12.73-5.79c-4.12,1.1-7.56,4.83-8,8.76,1.84,0,3.68,0,5.51,0a7,7,0,0,1,7.25,7.31q0,7.59,0,15.17a6.93,6.93,0,0,1-7.26,7.26c-1.91,0-3.83,0-5.75,0v3.61h1.1a41,41,0,0,1,6.28.16c4,.67,6.09,4.19,5.61,8.75a7.07,7.07,0,0,1-7.14,6.23C31.43,117.82,29.56,117.81,27.67,117.81Zm53.22-77.5c-1.29,0-2.4.06-3.51,0a1.9,1.9,0,0,1-1.9-1.89,2,2,0,0,1,1.92-2,11.22,11.22,0,0,1,1.16,0c2.31,0,4.63,0,6.94,0a2,2,0,0,0,2-2,2.06,2.06,0,0,0-2-2.13,13.28,13.28,0,0,0-1.41,0h-21c-4.37,0-8.74,0-13.11,0a3.08,3.08,0,0,0-1.93.42,3.21,3.21,0,0,0-.85,2.19,1.89,1.89,0,0,0,2.13,1.63H63.73c1.63,0,3.26,0,4.89,0,.93,0,1.78.46,1.87,1.42a2.82,2.82,0,0,1-.64,2,2.91,2.91,0,0,1-1.9.49c-3.3,0-6.6,0-9.9,0H53.46a19.69,19.69,0,0,0,.6,6.58,1.67,1.67,0,0,0,1.59,1.46c7.11,1.25,14.21,2.55,21.32,3.79a1.36,1.36,0,0,0,1.15-.44A18,18,0,0,0,80.89,40.31Zm4.49,91.43c-.8-1.91-1.5-3.59-2.22-5.27-1.14-2.69-1.14-2.68-4.1-2.67a1.56,1.56,0,0,0-1.61.7c-3.51,5.35-10.44,5.33-14,0a1.85,1.85,0,0,0-1.29-.71c-4.11,0-8.23,0-12.34,0-.34,0-.89.13-1,.35-1.11,2.47-2.14,5-3.25,7.58h1.75q11.25,0,22.5,0c1.47,0,2.34.76,2.34,2s-.77,1.88-2.21,2c-.38,0-.77,0-1.15,0H51.2c-.5,0-1,0-1.49.07v4.84H81.29v-4.92c-.67,0-1.26,0-1.85,0-1.53-.06-2.48-.88-2.42-2.06s1-1.88,2.45-1.89C81.36,131.73,83.24,131.74,85.38,131.74Zm-58-36.59c2.17,0,4.26.1,6.33,0A2.91,2.91,0,0,0,36.55,92c.06-5.22.05-10.44,0-15.66a2.83,2.83,0,0,0-2.46-3c-2.2-.11-4.41,0-6.67,0ZM54.13,61.7a20.13,20.13,0,0,1,26.15,3l2.1-7.63L52.22,51.68Zm19-43.76A15.55,15.55,0,0,0,52.45,28.06H71.24C71.89,24.68,72.51,21.39,73.16,17.94Zm22.07,86.83c1.9,0,3.68,0,5.46,0a5.21,5.21,0,0,0,5.09-4.67,5.05,5.05,0,0,0-3.93-5.65,51.37,51.37,0,0,0-6.62-.35Zm-9.87-20.6v6H98.48v-6ZM27.47,106.53v7.33c2,0,4,.08,6,0s3.11-1.45,3.07-3.77c0-2.17-1.18-3.46-3.22-3.53S29.51,106.53,27.47,106.53Zm63.63-1.82V94.27H85.36v10.44ZM82.73,28.07a21.71,21.71,0,0,0-.37-3.38,60.94,60.94,0,0,0-2.22-6.9c-.55-1.33-1.4-1.3-2.13-.07-1.87,3.17-2.32,6.7-2.58,10.35Zm-8,92.25a4.24,4.24,0,0,0-4.22-4.27,4.38,4.38,0,0,0-4.28,4.27,4.24,4.24,0,0,0,4.27,4.21A4.15,4.15,0,0,0,74.7,120.32Zm-11.4-4.21H49.71v3.73H62.15ZM106.72,92.4v-11H102.5v8.86Zm4-2.37c2.75-.26,5.38-.48,8-.77a1,1,0,0,0,.7-.66c.08-1.13,0-2.27,0-3.47l-8.74-.83Zm-29.5,29.8v-3.72h-3.6l1.11,3.72Z" transform="translate(-8.87 -12.68)"/><path class="cls-2" d="M155.15,71.29a3.71,3.71,0,0,1-2.92,1.25A56.41,56.41,0,0,0,133,77.28c-1.46.66-2.51.4-3-.73s-.05-2.12,1.41-2.8a59.49,59.49,0,0,1,19.47-5c.47,0,.94-.09,1.4-.18a2.62,2.62,0,0,1,3,1.2Z" transform="translate(-8.87 -12.68)"/><path class="cls-3" d="M155.15,81.31c-1,1.13-2.13,1.17-3.53.65a18.92,18.92,0,0,0-7.94-1c-1.51.09-2.52-.61-2.61-1.82s.89-2,2.37-2.12a24.34,24.34,0,0,1,9.69,1.37,9.37,9.37,0,0,1,2,1.42Z" transform="translate(-8.87 -12.68)"/><path class="cls-4" d="M65.23,20.56c.72,0,1.45,0,2.17,0a1.78,1.78,0,0,1,1.88,1.84,1.82,1.82,0,0,1-1.72,2,41.46,41.46,0,0,1-4.73,0,1.93,1.93,0,0,1,.09-3.86C63.69,20.52,64.46,20.56,65.23,20.56Z" transform="translate(-8.87 -12.68)"/><path class="cls-5" d="M112.87,23c-3.68-.52-4.4-.94-4.37-2.47s.85-2,4.43-2.35c0-.64,0-1.31,0-2a2.28,2.28,0,0,1,2.27-2.34,2.34,2.34,0,0,1,2.21,2.43c0,.6,0,1.21,0,1.89,1.8.29,4.39-.43,4.36,2.42s-2.49,2.14-4.31,2.32c-.14,1.84.42,4.3-2.32,4.29S113,24.82,112.87,23Z" transform="translate(-8.87 -12.68)"/><path class="cls-6" d="M106.23,156.59c-3.68-.51-4.41-.93-4.38-2.47s.86-2,4.44-2.35c0-.64,0-1.31,0-2a2.28,2.28,0,0,1,2.27-2.34,2.36,2.36,0,0,1,2.21,2.43c0,.61,0,1.21,0,1.9,1.79.28,4.38-.44,4.36,2.41s-2.49,2.14-4.31,2.32c-.14,1.84.42,4.3-2.32,4.3S106.36,158.4,106.23,156.59Z" transform="translate(-8.87 -12.68)"/><path class="cls-7" d="M13.25,34.57c-3.68-.52-4.41-.94-4.38-2.47s.85-2,4.44-2.35c0-.64,0-1.31,0-2a2.28,2.28,0,0,1,2.28-2.34,2.34,2.34,0,0,1,2.2,2.43c0,.6,0,1.2,0,1.89,1.79.29,4.38-.43,4.36,2.41s-2.5,2.15-4.32,2.33c-.13,1.83.42,4.3-2.32,4.29S13.37,36.38,13.25,34.57Z" transform="translate(-8.87 -12.68)"/></svg>